<svg xmlns="http://www.w3.org/2000/svg" version="1.1" xmlns:xlink="http://www.w3.org/1999/xlink" viewBox="0 0 200 200"><rect width="200" height="200" fill="url('#gradient')"></rect><defs><linearGradient id="gradient" gradientTransform="rotate(45 0.5 0.5)"><stop offset="0%" stop-color="#142850"></stop><stop offset="100%" stop-color="#142850"></stop></linearGradient></defs><g><g fill="#00a8cc" transform="matrix(7.0154354106479575,0,0,7.0154354106479575,9.465532043095308,149.84904083900594)" stroke="#00a8cc" stroke-width="0.2"><path d="M6.85 0L1.07 0L1.07-14.22L6.18-14.22Q8.93-14.22 10.36-13.21Q11.79-12.21 11.79-10.29L11.79-10.29Q11.79-9.19 11.28-8.41Q10.77-7.63 9.79-7.26L9.79-7.26Q10.90-6.96 11.49-6.16Q12.09-5.36 12.09-4.21L12.09-4.21Q12.09-2.12 10.77-1.07Q9.44-0.02 6.85 0L6.85 0ZM6.90-6.04L4.50-6.04L4.50-2.64L6.75-2.64Q7.68-2.64 8.17-3.06Q8.67-3.49 8.67-4.26L8.67-4.26Q8.67-6.04 6.90-6.04L6.90-6.04ZM4.50-11.57L4.50-8.29L6.29-8.29Q7.41-8.30 7.89-8.70Q8.37-9.10 8.37-9.88L8.37-9.88Q8.37-10.78 7.85-11.18Q7.33-11.57 6.18-11.57L6.18-11.57L4.50-11.57ZM21.31-3.78L21.31-3.78Q21.31-4.53 20.78-4.95Q20.24-5.37 18.91-5.82Q17.57-6.27 16.72-6.69L16.72-6.69Q13.96-8.05 13.96-10.42L13.96-10.42Q13.96-11.60 14.64-12.50Q15.33-13.41 16.59-13.91Q17.85-14.41 19.42-14.41L19.42-14.41Q20.96-14.41 22.17-13.87Q23.39-13.32 24.06-12.31Q24.74-11.30 24.74-10L24.74-10L21.32-10Q21.32-10.87 20.79-11.35Q20.25-11.83 19.35-11.83L19.35-11.83Q18.43-11.83 17.90-11.42Q17.36-11.02 17.36-10.39L17.36-10.39Q17.36-9.84 17.95-9.40Q18.54-8.96 20.01-8.48Q21.48-8.01 22.43-7.46L22.43-7.46Q24.74-6.13 24.74-3.80L24.74-3.80Q24.74-1.93 23.33-0.87Q21.92 0.20 19.47 0.20L19.47 0.20Q17.74 0.20 16.34-0.42Q14.94-1.04 14.23-2.12Q13.53-3.20 13.53-4.61L13.53-4.61L16.96-4.61Q16.96-3.47 17.55-2.92Q18.14-2.38 19.47-2.38L19.47-2.38Q20.32-2.38 20.82-2.75Q21.31-3.12 21.31-3.78Z"></path></g></g></svg>